<svg width="200" height="112" viewBox="0 0 36 20" fill="none" xmlns="http://www.w3.org/2000/svg" role="img" aria-label="">
  
  <defs>
    <g id="front-person-shape">
      <circle cx="18" cy="8" r="4.5" />
      <path d="M18 13.5C13.5 13.5 9 15.5 9 19V21H27V19C27 15.5 22.5 13.5 18 13.5Z" />
    </g>

    <mask id="cutout-mask" maskUnits="userSpaceOnUse">
      <rect width="36" height="20" fill="white" />
      <use href="#front-person-shape" fill="black" stroke="black" stroke-width="4" />
    </mask>
  </defs>

  <g fill="#d19449" mask="url(#cutout-mask)">
    <circle cx="7" cy="6" r="3.5" />
    <path d="M7 11C4.5 11 1 12.5 1 16V20H13V16C13 12.5 9.5 11 7 11Z" />
    <circle cx="29" cy="6" r="3.5" />
    <path d="M29 11C26.5 11 23 12.5 23 16V20H35V16C35 12.5 31.5 11 29 11Z" />
  </g>

  <use href="#front-person-shape" fill="#d19449" />
  
</svg>